<mxfile host="app.diagrams.net" modified="2024-04-25T04:41:04.913Z" agent="Mozilla/5.0 (Windows NT 10.0; Win64; x64) AppleWebKit/537.36 (KHTML, like Gecko) Chrome/118.0.0.0 Safari/537.36" version="24.2.7" etag="IS9yZOLsZkEXgsSyfZZN" type="github">
  <diagram name="Page-1" id="Iu5fhTTKoY7aKBGacjm8">
    <mxGraphModel>
      <root>
        <mxCell id="0" />
        <mxCell id="1" parent="0" />
      </root>
    </mxGraphModel>
  </diagram>
</mxfile>
